<svg width="30" height="30" viewBox="0 0 30 30" fill="none" xmlns="http://www.w3.org/2000/svg">
<rect width="30" height="30" rx="5" fill="white"/>
<g clip-path="url(#clip0_20_943)">
<path d="M25 5H5V25H25V5Z" fill="url(#paint0_linear_20_943)"/>
<path d="M13.8438 14.5938C13.8438 14.5938 14.9688 14.5 14.9688 13.1875C14.9688 11.875 14.0625 11.25 12.9062 11.25H9.0625V18.625H12.9062C12.9062 18.625 15.25 18.6875 15.25 16.4375C15.2187 16.4375 15.3438 14.5938 13.8438 14.5938ZM10.75 12.5625H12.9062C12.9062 12.5625 13.4375 12.5625 13.4375 13.3438C13.4375 14.125 13.125 14.2188 12.7812 14.2188H10.7812V12.5625H10.75ZM12.7812 17.2813H10.75V15.3125H12.9062C12.9062 15.3125 13.6875 15.3125 13.6875 16.3125C13.6562 17.1875 13.0938 17.2813 12.7812 17.2813Z" fill="#F1F2F2"/>
<path d="M19.8125 11.6875H16.7812V12.5937H19.8125V11.6875Z" fill="#F1F2F2"/>
<path d="M18.3438 13.125C15.5 13.125 15.5 15.9688 15.5 15.9688C15.5 15.9688 15.3125 18.7813 18.3438 18.7813C18.3438 18.7813 20.875 18.9375 20.875 16.8125H19.5625C19.5625 16.8125 19.5938 17.5938 18.375 17.5938C18.375 17.5938 17.0625 17.6875 17.0625 16.3125H20.875C20.9063 16.3125 21.3438 13.125 18.3438 13.125ZM17.0938 15.3125C17.0938 15.3125 17.25 14.1875 18.375 14.1875C19.5 14.1875 19.5 15.3125 19.5 15.3125H17.0938Z" fill="#F1F2F2"/>
</g>
<defs>
<linearGradient id="paint0_linear_20_943" x1="5.76066" y1="24.0911" x2="25.2398" y2="4.92444" gradientUnits="userSpaceOnUse">
<stop offset="0.2887" stop-color="#3F56FF"/>
<stop offset="1" stop-color="#3FA1FF"/>
</linearGradient>
<clipPath id="clip0_20_943">
<rect x="5" y="5" width="20" height="20" rx="3" fill="white"/>
</clipPath>
</defs>
</svg>
