<svg width="431" height="1238" viewBox="0 0 431 1238" fill="none" xmlns="http://www.w3.org/2000/svg">
<path opacity="0.010101" d="M-213.989 779.842C-221.993 782.748 -230.889 779.956 -235.614 773.056L-420.878 502.523C-425.178 496.244 -425.069 487.933 -420.605 481.636L-220.305 199.094C-215.573 192.419 -207.031 189.523 -199.264 191.961L108.198 288.452C115.965 290.89 121.133 298.088 120.927 306.184L112.216 648.853C112.022 656.49 107.08 663.284 99.7978 665.928L-213.989 779.842Z" stroke="url(#paint0_linear_229_6020)" stroke-opacity="0.5" stroke-width="3"/>
<path opacity="0.020202" d="M-219.209 781.556C-227.258 784.32 -236.105 781.361 -240.713 774.366L-420.879 500.798C-425.068 494.439 -424.821 486.128 -420.259 479.912L-215.835 201.344C-210.996 194.75 -202.412 192.009 -194.69 194.591L110.199 296.549C117.921 299.131 122.965 306.43 122.624 314.528L108.204 656.636C107.882 664.27 102.835 670.975 95.5184 673.487L-219.209 781.556Z" stroke="url(#paint1_linear_229_6020)" stroke-opacity="0.5" stroke-width="3"/>
<path opacity="0.030303" d="M-224.384 783.188C-232.475 785.809 -241.27 782.684 -245.757 775.596L-420.791 499.091C-424.867 492.652 -424.482 484.345 -419.824 478.21L-211.356 203.688C-206.412 197.178 -197.789 194.591 -190.116 197.317L112.119 304.688C119.792 307.414 124.711 314.812 124.234 322.909L104.133 664.35C103.684 671.98 98.5318 678.593 91.1831 680.974L-224.384 783.188Z" stroke="url(#paint2_linear_229_6020)" stroke-opacity="0.5" stroke-width="3"/>
<path opacity="0.040404" d="M-229.513 784.738C-237.641 787.214 -246.38 783.925 -250.746 776.746L-420.613 497.402C-424.576 490.885 -424.053 482.583 -419.299 476.531L-206.87 206.126C-201.823 199.701 -193.163 197.27 -185.541 200.139L113.957 312.868C121.579 315.737 126.37 323.231 125.759 331.325L100.004 671.994C99.4276 679.618 94.1724 686.139 86.7934 688.386L-229.513 784.738Z" stroke="url(#paint3_linear_229_6020)" stroke-opacity="0.5" stroke-width="3"/>
<path opacity="0.050505" d="M-234.594 786.207C-242.758 788.538 -251.437 785.085 -255.679 777.819L-420.348 495.732C-424.197 489.14 -423.536 480.844 -418.688 474.877L-202.379 208.657C-197.23 202.319 -188.537 200.045 -180.97 203.056L115.712 321.087C123.28 324.098 127.942 331.685 127.195 339.774L95.8176 679.567C95.1143 687.183 89.7572 693.61 82.3498 695.725L-234.594 786.207Z" stroke="url(#paint4_linear_229_6020)" stroke-opacity="0.5" stroke-width="3"/>
<path opacity="0.0606061" d="M-239.627 787.596C-247.824 789.78 -256.44 786.165 -260.556 778.814L-419.997 494.084C-423.73 487.417 -422.932 479.129 -417.99 473.248L-197.886 211.281C-192.636 205.033 -183.914 202.916 -176.403 206.068L117.382 329.343C124.893 332.495 129.425 340.173 128.543 348.255L91.5744 687.067C90.7444 694.674 85.2868 701.006 77.853 702.987L-239.627 787.596Z" stroke="url(#paint5_linear_229_6020)" stroke-opacity="0.5" stroke-width="3"/>
<path opacity="0.0707071" d="M-244.611 788.905C-252.837 790.942 -261.385 787.166 -265.375 779.733L-419.559 492.458C-423.176 485.719 -422.24 477.441 -417.206 471.646L-193.392 214C-188.043 207.842 -179.293 205.883 -171.842 209.175L118.969 337.635C126.42 340.927 130.819 348.694 129.802 356.765L87.277 694.493C86.3205 702.089 80.7637 708.325 73.3054 710.172L-244.611 788.905Z" stroke="url(#paint6_linear_229_6020)" stroke-opacity="0.5" stroke-width="3"/>
<path opacity="0.0808081" d="M-249.543 790.137C-257.795 792.026 -266.272 788.09 -270.133 780.578L-419.033 490.858C-422.533 484.047 -421.46 475.782 -416.335 470.075L-188.895 216.812C-183.449 210.748 -174.675 208.947 -167.287 212.376L120.473 345.962C127.861 349.392 132.125 357.246 130.975 365.305L82.9281 701.846C81.8454 709.43 76.1906 715.569 68.7099 717.281L-249.543 790.137Z" stroke="url(#paint7_linear_229_6020)" stroke-opacity="0.5" stroke-width="3"/>
<path opacity="0.0909091" d="M-254.423 791.291C-262.698 793.031 -271.101 788.938 -274.832 781.349L-418.424 489.283C-421.806 482.404 -420.595 474.152 -415.38 468.534L-184.401 219.718C-178.859 213.748 -170.065 212.106 -162.741 215.673L121.891 354.322C129.214 357.889 133.343 365.827 132.058 373.871L78.527 709.124C77.3183 716.694 71.5669 722.734 64.0657 724.311L-254.423 791.291Z" stroke="url(#paint8_linear_229_6020)" stroke-opacity="0.5" stroke-width="3"/>
<path opacity="0.10101" d="M-259.25 792.368C-267.546 793.959 -275.87 789.71 -279.47 782.048L-417.73 487.736C-420.993 480.79 -419.646 472.553 -414.342 467.026L-179.911 222.717C-174.275 216.843 -165.462 215.359 -158.207 219.063L123.224 362.712C130.479 366.415 134.47 374.434 133.052 382.461L74.0753 716.326C72.741 723.88 66.8942 729.82 59.3745 731.262L-259.25 792.368Z" stroke="url(#paint9_linear_229_6020)" stroke-opacity="0.5" stroke-width="3"/>
<path opacity="0.111111" d="M-264.022 793.371C-272.334 794.812 -280.577 790.409 -284.044 782.676L-416.951 486.218C-420.095 479.207 -418.61 470.987 -413.218 465.552L-175.424 225.809C-169.696 220.034 -160.868 218.709 -153.683 222.547L124.473 371.133C131.658 374.971 135.509 383.068 133.958 391.075L69.5767 723.452C68.1169 730.988 62.1762 736.827 54.6399 738.133L-264.022 793.371Z" stroke="url(#paint10_linear_229_6020)" stroke-opacity="0.5" stroke-width="3"/>
<path opacity="0.121212" d="M-268.74 794.299C-277.066 795.589 -285.223 791.034 -288.556 783.233L-416.091 484.731C-419.114 477.656 -417.492 469.455 -412.014 464.113L-170.945 228.994C-165.126 223.318 -156.286 222.153 -149.175 226.124L125.635 379.581C132.747 383.552 136.457 391.725 134.773 399.711L65.0294 730.499C63.4446 738.016 57.4111 743.753 49.8602 744.923L-268.74 794.299Z" stroke="url(#paint11_linear_229_6020)" stroke-opacity="0.5" stroke-width="3"/>
<path opacity="0.131313" d="M-273.399 795.155C-281.736 796.294 -289.805 791.589 -293.003 783.723L-415.147 483.276C-418.048 476.14 -416.29 467.96 -410.726 462.711L-166.472 232.272C-160.564 226.698 -151.716 225.692 -144.68 229.795L126.713 388.056C133.749 392.159 137.317 400.405 135.501 408.367L60.4383 737.468C58.7286 744.964 52.6037 750.598 45.0401 751.632L-273.399 795.155Z" stroke="url(#paint12_linear_229_6020)" stroke-opacity="0.5" stroke-width="3"/>
<path opacity="0.141414" d="M-278.002 795.938C-286.346 796.926 -294.323 792.073 -297.384 784.146L-414.122 481.856C-416.901 474.66 -415.006 466.502 -409.358 461.348L-162.01 235.643C-156.013 230.172 -147.16 229.325 -140.202 233.558L127.705 396.556C134.662 400.789 138.086 409.106 136.139 417.041L55.8027 744.359C53.9684 751.832 47.7534 757.362 40.1793 758.259L-278.002 795.938Z" stroke="url(#paint13_linear_229_6020)" stroke-opacity="0.5" stroke-width="3"/>
<path opacity="0.151515" d="M-282.546 796.65C-290.894 797.487 -298.776 792.488 -301.7 784.502L-413.017 480.47C-415.673 473.216 -413.642 465.082 -407.911 460.025L-157.559 239.106C-151.477 233.739 -142.62 233.052 -135.743 237.413L128.609 405.079C135.486 409.44 138.765 417.825 136.686 425.731L51.1242 751.169C49.1656 758.618 42.8617 764.042 35.2789 764.802L-282.546 796.65Z" stroke="url(#paint14_linear_229_6020)" stroke-opacity="0.5" stroke-width="3"/>
<path opacity="0.161616" d="M-287.03 797.293C-295.379 797.977 -303.162 792.835 -305.948 784.794L-411.832 479.121C-414.364 471.811 -412.196 463.704 -406.383 458.744L-153.119 242.661C-146.953 237.4 -138.097 236.872 -131.303 241.36L129.428 413.624C136.222 418.112 139.354 426.561 137.145 434.436L46.4054 757.899C44.3228 765.323 37.9314 770.64 30.342 771.262L-287.03 797.293Z" stroke="url(#paint15_linear_229_6020)" stroke-opacity="0.5" stroke-width="3"/>
<path opacity="0.171717" d="M-291.453 797.867C-299.799 798.4 -307.481 793.116 -310.127 785.023L-410.568 477.81C-412.975 470.447 -410.671 462.367 -404.778 457.507L-148.693 246.307C-142.445 241.154 -133.592 240.786 -126.884 245.399L130.161 422.189C136.869 426.803 139.854 435.314 137.515 443.155L41.6476 764.548C39.4414 771.944 32.9638 777.153 25.3697 777.638L-291.453 797.867Z" stroke="url(#paint16_linear_229_6020)" stroke-opacity="0.5" stroke-width="3"/>
<path opacity="0.181818" d="M-295.814 798.373C-304.155 798.754 -311.733 793.332 -314.239 785.189L-409.226 476.539C-411.508 469.123 -409.068 461.073 -403.095 456.313L-144.284 250.045C-137.955 245.001 -129.108 244.792 -122.489 249.528L130.807 430.773C137.427 435.509 140.263 444.079 137.795 451.885L36.8514 771.115C34.5218 778.482 27.9593 783.582 20.3626 783.929L-295.814 798.373Z" stroke="url(#paint17_linear_229_6020)" stroke-opacity="0.5" stroke-width="3"/>
<path opacity="0.191919" d="M-300.112 798.813C-308.444 799.043 -315.915 793.484 -318.28 785.296L-407.806 475.31C-409.963 467.843 -407.387 459.825 -401.336 455.166L-139.891 253.874C-133.484 248.941 -124.646 248.89 -118.117 253.748L131.367 439.374C137.896 444.232 140.583 452.858 137.986 460.625L32.0195 777.6C29.5669 784.936 22.9208 789.926 15.3234 790.135L-300.112 798.813Z" stroke="url(#paint18_linear_229_6020)" stroke-opacity="0.5" stroke-width="3"/>
<path opacity="0.20202" d="M-304.348 799.187C-312.669 799.265 -320.029 793.573 -322.252 785.342L-406.313 474.121C-408.342 466.607 -405.631 458.622 -399.503 454.065L-135.518 257.792C-129.034 252.972 -120.208 253.079 -113.772 258.056L131.838 447.989C138.275 452.966 140.81 461.645 138.086 469.373L27.1511 784.001C24.5759 791.305 17.8475 796.183 10.2515 796.254L-304.348 799.187Z" stroke="url(#paint19_linear_229_6020)" stroke-opacity="0.5" stroke-width="3"/>
<path opacity="0.212121" d="M-308.517 799.499C-316.823 799.425 -324.07 793.603 -326.151 785.332L-404.742 472.978C-406.644 465.417 -403.798 457.467 -397.594 453.015L-131.163 261.802C-124.605 257.095 -115.793 257.36 -109.452 262.455L132.225 456.619C138.567 461.714 140.951 470.443 138.099 478.127L22.252 790.32C19.5545 797.59 12.7452 802.356 5.15257 802.288L-308.517 799.499Z" stroke="url(#paint20_linear_229_6020)" stroke-opacity="0.5" stroke-width="3"/>
<path opacity="0.222222" d="M-312.622 799.747C-320.91 799.522 -328.041 793.571 -329.979 785.264L-403.099 471.878C-404.873 464.273 -401.891 456.361 -395.613 452.013L-126.831 265.9C-120.2 261.308 -111.407 261.731 -105.162 266.941L132.523 465.26C138.768 470.471 140.999 479.247 138.021 486.886L17.3192 796.554C14.4998 803.788 7.61085 808.44 0.0236867 808.234L-312.622 799.747Z" stroke="url(#paint21_linear_229_6020)" stroke-opacity="0.5" stroke-width="3"/>
<path opacity="0.232323" d="M-316.659 799.933C-324.926 799.558 -331.939 793.483 -333.734 785.142L-401.381 470.826C-403.027 463.178 -399.91 455.305 -393.559 451.064L-122.521 270.087C-115.819 265.612 -107.046 266.192 -100.901 271.516L132.736 473.913C138.882 479.236 140.959 488.056 137.856 495.649L12.3578 802.705C9.41669 809.901 2.44952 814.438 -5.13018 814.093L-316.659 799.933Z" stroke="url(#paint22_linear_229_6020)" stroke-opacity="0.5" stroke-width="3"/>
<path opacity="0.242424" d="M-320.629 800.06C-328.872 799.534 -335.764 793.337 -337.415 784.966L-399.591 469.821C-401.108 462.133 -397.857 454.302 -391.433 450.168L-118.236 274.363C-111.465 270.006 -102.715 270.742 -96.671 276.177L132.862 482.574C138.907 488.009 140.83 496.87 137.602 504.413L7.36781 808.77C4.30557 815.927 -2.73846 820.348 -10.3087 819.865L-320.629 800.06Z" stroke="url(#paint23_linear_229_6020)" stroke-opacity="0.5" stroke-width="3"/>
<path opacity="0.252525" d="M-324.532 800.127C-332.747 799.452 -339.516 793.135 -341.023 784.738L-397.732 468.865C-399.119 461.139 -395.733 453.35 -389.239 449.325L-113.977 278.727C-107.139 274.489 -98.4158 275.381 -92.4745 280.925L132.901 491.242C138.842 496.786 140.61 505.685 137.259 513.176L2.34998 814.75C-0.833032 821.866 -7.95256 826.169 -15.5112 825.548L-324.532 800.127Z" stroke="url(#paint24_linear_229_6020)" stroke-opacity="0.5" stroke-width="3"/>
<path opacity="0.262626" d="M-328.365 800.137C-336.55 799.312 -343.193 792.879 -344.557 784.458L-395.802 467.96C-397.059 460.197 -393.54 452.454 -386.976 448.539L-109.746 283.178C-102.843 279.061 -94.1483 280.107 -88.3122 285.759L132.853 499.916C138.689 505.567 140.301 514.5 136.827 521.938L-2.69327 820.645C-5.99663 827.717 -13.1903 831.903 -20.7353 831.142L-328.365 800.137Z" stroke="url(#paint25_linear_229_6020)" stroke-opacity="0.5" stroke-width="3"/>
<path opacity="0.272727" d="M-332.127 800.091C-340.279 799.117 -346.795 792.571 -348.014 784.13L-393.803 467.106C-394.929 459.309 -391.276 451.613 -384.644 447.809L-105.542 287.716C-98.5763 283.72 -89.9135 284.921 -84.1843 290.677L132.719 508.594C138.449 514.35 139.904 523.315 136.309 530.696L-7.75951 826.454C-11.1828 833.481 -18.4491 837.547 -25.9784 836.648L-332.127 800.091Z" stroke="url(#paint26_linear_229_6020)" stroke-opacity="0.5" stroke-width="3"/>
<path opacity="0.282828" d="M-335.819 799.989C-343.935 798.868 -350.321 792.212 -351.396 783.753L-391.736 466.304C-392.731 458.475 -388.945 450.828 -382.247 447.137L-101.369 292.34C-94.3421 288.467 -85.7136 289.822 -80.0931 295.68L132.499 517.274C138.12 523.133 139.419 532.126 135.702 539.449L-12.8482 832.176C-16.3909 839.157 -23.7285 843.102 -31.2401 842.064L-335.819 799.989Z" stroke="url(#paint27_linear_229_6020)" stroke-opacity="0.5" stroke-width="3"/>
<path opacity="0.292929" d="M-339.439 799.834C-347.516 798.566 -353.77 791.803 -354.701 783.33L-389.602 465.557C-390.465 457.698 -386.547 450.102 -379.783 446.524L-97.227 297.049C-90.141 293.301 -81.5494 294.808 -76.0395 300.767L132.194 525.956C137.704 531.914 138.845 540.933 135.009 548.196L-17.9571 837.812C-21.6188 844.745 -29.0262 848.568 -36.518 847.392L-339.439 799.834Z" stroke="url(#paint28_linear_229_6020)" stroke-opacity="0.5" stroke-width="3"/>
<path opacity="0.30303" d="M-342.988 799.627C-351.024 798.212 -357.143 791.346 -357.93 782.862L-387.404 464.864C-388.136 456.977 -384.084 449.435 -377.257 445.971L-93.119 301.843C-85.9761 298.22 -77.4243 299.879 -72.0265 305.936L131.801 534.636C137.199 540.693 138.183 549.733 134.228 556.933L-23.0866 843.361C-26.8667 850.244 -34.3424 853.944 -41.8123 852.629L-342.988 799.627Z" stroke="url(#paint29_linear_229_6020)" stroke-opacity="0.5" stroke-width="3"/>
<path opacity="0.313131" d="M-346.462 799.369C-354.453 797.81 -360.438 790.842 -361.08 782.35L-385.141 464.229C-385.739 456.316 -381.556 448.829 -374.666 445.481L-89.0436 306.722C-81.846 303.225 -73.3362 305.035 -68.0522 311.187L131.324 543.315C136.608 549.467 137.434 558.526 133.362 565.662L-28.2319 848.824C-32.13 855.654 -39.6726 859.23 -47.1185 857.777L-346.462 799.369Z" stroke="url(#paint30_linear_229_6020)" stroke-opacity="0.5" stroke-width="3"/>
<path opacity="0.323232" d="M-349.865 799.06C-357.808 797.357 -363.655 790.293 -364.154 781.795L-382.815 463.649C-383.281 455.712 -378.966 448.283 -372.016 445.053L-85.0054 311.683C-77.755 308.313 -69.29 310.274 -64.1214 316.519L130.76 551.988C135.929 558.233 136.597 567.308 132.408 574.377L-33.3951 854.198C-37.4105 860.975 -45.0184 864.425 -52.4382 862.834L-349.865 799.06Z" stroke="url(#paint31_linear_229_6020)" stroke-opacity="0.5" stroke-width="3"/>
<path opacity="0.333333" d="M-353.192 798.704C-361.085 796.858 -366.793 789.7 -367.148 781.201L-380.427 463.128C-380.759 455.17 -376.314 447.801 -369.303 444.689L-81.0028 316.727C-73.7019 313.486 -65.2841 315.595 -60.2324 321.931L130.112 560.657C135.164 566.993 135.674 576.08 131.37 583.08L-38.5715 859.486C-42.7037 866.207 -50.3754 869.531 -57.7671 867.802L-353.192 798.704Z" stroke="url(#paint32_linear_229_6020)" stroke-opacity="0.5" stroke-width="3"/>
<path opacity="0.343434" d="M-356.444 798.302C-364.285 796.314 -369.852 789.064 -370.064 780.567L-377.979 462.667C-378.177 454.69 -373.601 447.382 -366.533 444.391L-77.039 321.852C-69.6896 318.741 -61.3216 320.998 -56.3882 327.422L129.379 569.319C134.312 575.743 134.664 584.84 130.246 591.768L-43.7615 864.687C-48.0099 871.35 -55.7438 874.546 -63.1052 872.679L-356.444 798.302Z" stroke="url(#paint33_linear_229_6020)" stroke-opacity="0.5" stroke-width="3"/>
<path opacity="0.353535" d="M-359.619 797.854C-367.405 795.725 -372.831 788.388 -372.899 779.895L-375.47 462.267C-375.534 454.272 -370.828 447.029 -363.704 444.158L-73.1135 327.059C-65.7179 324.079 -57.402 326.483 -52.5884 332.992L128.562 577.972C133.376 584.482 133.569 593.585 129.039 600.44L-48.9619 869.8C-53.3258 876.404 -61.1204 879.47 -68.4493 877.466L-359.619 797.854Z" stroke="url(#paint34_linear_229_6020)" stroke-opacity="0.5" stroke-width="3"/>
<path opacity="0.363636" d="M-362.72 797.362C-370.448 795.094 -375.73 787.672 -375.656 779.187L-372.904 461.928C-372.834 453.918 -367.999 446.741 -360.82 443.992L-69.2299 332.346C-61.7902 329.497 -53.5289 332.047 -48.8363 338.64L127.66 586.614C132.353 593.207 132.388 602.314 127.746 609.094L-54.1733 874.825C-58.6521 881.368 -66.5057 884.304 -73.8001 882.163L-362.72 797.362Z" stroke="url(#paint35_linear_229_6020)" stroke-opacity="0.5" stroke-width="3"/>
<path opacity="0.373737" d="M-365.743 796.828C-373.41 794.421 -378.548 786.919 -378.332 778.444L-370.279 461.651C-370.075 453.629 -365.111 446.521 -357.879 443.895L-65.3869 337.712C-57.9052 334.996 -49.7009 337.69 -45.1306 344.364L126.676 595.245C131.246 601.919 131.123 611.025 126.371 617.728L-59.3918 879.763C-63.9849 886.242 -71.8958 889.047 -79.1535 886.769L-365.743 796.828Z" stroke="url(#paint36_linear_229_6020)" stroke-opacity="0.5" stroke-width="3"/>
<path opacity="0.383838" d="M-368.689 796.252C-376.293 793.709 -381.285 786.129 -380.929 777.667L-367.6 461.438C-367.262 453.405 -362.17 446.368 -354.887 443.867L-61.5883 343.156C-54.0669 340.573 -45.9219 343.411 -41.475 350.163L125.607 603.862C130.054 610.614 129.773 619.717 124.912 626.34L-64.6184 884.613C-69.3249 891.027 -77.2915 893.698 -84.5104 891.284L-368.689 796.252Z" stroke="url(#paint37_linear_229_6020)" stroke-opacity="0.5" stroke-width="3"/>
<path opacity="0.393939" d="M-371.557 795.638C-379.096 792.959 -383.941 785.305 -383.444 776.859L-364.866 461.289C-364.393 453.248 -359.174 446.284 -351.841 443.909L-57.8332 348.678C-50.2742 346.229 -42.1908 349.209 -37.8686 356.037L124.456 612.465C128.779 619.293 128.34 628.389 123.372 634.931L-69.8495 889.376C-74.6688 895.722 -82.6893 898.26 -89.8673 895.71L-371.557 795.638Z" stroke="url(#paint38_linear_229_6020)" stroke-opacity="0.5" stroke-width="3"/>
<path opacity="0.40404" d="M-374.347 794.985C-381.819 792.172 -386.517 784.447 -385.88 776.02L-362.08 461.205C-361.471 453.158 -356.126 446.27 -348.745 444.022L-54.1249 354.276C-46.5306 351.962 -38.5111 355.083 -34.3145 361.984L123.222 621.05C127.419 627.951 126.822 637.038 121.748 643.496L-75.0858 894.05C-80.0169 900.327 -88.0896 902.73 -95.2246 900.045L-374.347 794.985Z" stroke="url(#paint39_linear_229_6020)" stroke-opacity="0.5" stroke-width="3"/>
<path opacity="0.414141" d="M-377.057 794.296C-384.459 791.351 -389.009 783.558 -388.232 775.153L-359.24 461.189C-358.497 453.138 -353.026 446.327 -345.599 444.207L-50.4616 359.95C-42.8343 357.772 -34.8809 361.032 -30.811 368.004L121.907 629.618C125.977 636.59 125.224 645.664 120.045 652.037L-80.3227 898.639C-85.3649 904.844 -93.488 907.111 -100.578 904.29L-377.057 794.296Z" stroke="url(#paint40_linear_229_6020)" stroke-opacity="0.5" stroke-width="3"/>
<path opacity="0.424242" d="M-379.689 793.572C-387.018 790.497 -391.419 782.638 -390.504 774.258L-356.35 461.239C-355.472 453.186 -349.876 446.456 -342.405 444.465L-46.8467 365.699C-39.1886 363.658 -31.3034 367.056 -27.3611 374.096L120.511 638.167C124.453 645.207 123.543 654.265 118.262 660.55L-85.5608 903.139C-90.7132 909.271 -98.8849 911.4 -105.927 908.445L-379.689 793.572Z" stroke="url(#paint41_linear_229_6020)" stroke-opacity="0.5" stroke-width="3"/>
<path opacity="0.434343" d="M-382.241 792.814C-389.496 789.609 -393.746 781.689 -392.695 773.337L-353.411 461.356C-352.397 453.305 -346.679 446.657 -339.165 444.797L-43.281 371.521C-35.5944 369.617 -27.7796 373.152 -23.9659 380.258L119.033 646.693C122.847 653.799 121.781 662.838 116.398 669.035L-90.7988 907.552C-96.0604 913.609 -104.279 915.599 -111.272 912.51L-382.241 792.814Z" stroke="url(#paint42_linear_229_6020)" stroke-opacity="0.5" stroke-width="3"/>
<path opacity="0.444444" d="M-384.712 792.025C-391.89 788.693 -395.991 780.714 -394.803 772.392L-350.424 461.543C-349.275 453.495 -343.433 446.933 -335.879 445.203L-39.7649 377.416C-32.052 375.65 -24.3098 379.321 -20.6254 386.49L117.476 655.198C121.16 662.367 119.939 671.384 114.456 677.489L-96.034 911.878C-101.404 917.858 -109.667 919.708 -116.608 916.486L-384.712 792.025Z" stroke="url(#paint43_linear_229_6020)" stroke-opacity="0.5" stroke-width="3"/>
<path opacity="0.454545" d="M-387.103 791.205C-394.202 787.747 -398.152 779.714 -396.828 771.424L-347.389 461.799C-346.105 453.757 -340.142 447.282 -332.549 445.685L-36.2994 383.383C-28.5627 381.756 -20.8951 385.56 -17.3408 392.79L115.84 663.679C119.394 670.908 118.018 679.9 112.437 685.912L-101.265 916.117C-106.742 922.018 -115.048 923.728 -121.936 920.373L-387.103 791.205Z" stroke="url(#paint44_linear_229_6020)" stroke-opacity="0.5" stroke-width="3"/>
<path opacity="0.464646" d="M-389.413 790.357C-396.432 786.774 -400.23 778.689 -398.772 770.435L-344.31 462.126C-342.891 454.092 -336.807 447.707 -329.178 446.243L-32.8866 389.42C-25.1283 387.932 -17.5373 391.87 -14.1139 399.157L114.124 672.134C117.547 679.421 116.017 688.385 110.339 694.302L-106.492 920.27C-112.075 926.089 -120.422 927.657 -127.254 924.17L-389.413 790.357Z" stroke="url(#paint45_linear_229_6020)" stroke-opacity="0.5" stroke-width="3"/>
<path opacity="0.474747" d="M-391.639 789.483C-398.575 785.778 -402.221 777.643 -400.63 769.427L-341.183 462.525C-339.629 454.501 -333.426 448.208 -325.761 446.88L-29.5232 395.529C-21.7456 394.181 -14.2332 398.249 -10.9413 405.592L112.333 680.563C115.625 687.906 113.942 696.839 108.169 702.659L-111.708 924.338C-117.397 930.073 -125.782 931.498 -132.556 927.88L-391.639 789.483Z" stroke="url(#paint46_linear_229_6020)" stroke-opacity="0.5" stroke-width="3"/>
<path opacity="0.484848" d="M-393.787 788.581C-400.638 784.755 -404.133 776.575 -402.409 768.399L-338.017 462.994C-336.328 454.983 -330.007 448.785 -322.31 447.592L-26.2181 401.704C-18.4235 400.496 -10.9917 404.694 -7.83191 412.09L110.462 688.963C113.621 696.359 111.785 705.258 105.919 710.979L-116.921 928.318C-122.713 933.968 -131.135 935.248 -137.849 931.5L-393.787 788.581Z" stroke="url(#paint47_linear_229_6020)" stroke-opacity="0.5" stroke-width="3"/>
<path opacity="0.494949" d="M-395.854 787.655C-402.619 783.71 -405.962 775.487 -404.107 767.355L-334.811 463.535C-332.987 455.54 -326.549 449.439 -318.822 448.382L-22.9688 407.947C-15.1596 406.879 -7.81033 411.205 -4.78317 418.652L108.512 697.332C111.539 704.778 109.552 713.64 103.594 719.261L-122.124 932.212C-128.02 937.774 -136.477 938.909 -143.127 935.031L-395.854 787.655Z" stroke="url(#paint48_linear_229_6020)" stroke-opacity="0.5" stroke-width="3"/>
<path opacity="0.50505" d="M-397.838 786.707C-404.515 782.645 -407.705 774.382 -405.72 766.295L-331.563 464.15C-329.605 456.172 -323.052 450.171 -315.296 449.252L-19.7743 414.256C-11.9528 413.33 -4.68797 417.783 -1.79398 425.277L106.488 705.67C109.382 713.164 107.244 721.986 101.196 727.505L-127.316 936.022C-133.313 941.494 -141.802 942.483 -148.388 938.476L-397.838 786.707Z" stroke="url(#paint49_linear_229_6020)" stroke-opacity="0.5" stroke-width="3"/>
<path opacity="0.515152" d="M-399.74 785.738C-406.327 781.56 -409.366 773.261 -407.252 765.222L-328.277 464.838C-326.185 456.881 -319.518 450.981 -311.736 450.202L-16.6375 420.631C-8.80602 419.846 -1.62753 424.424 1.13286 431.963L104.388 713.976C107.148 721.515 104.861 730.294 98.7243 735.709L-132.495 939.746C-138.593 945.126 -147.112 945.967 -153.632 941.832L-399.74 785.738Z" stroke="url(#paint50_linear_229_6020)" stroke-opacity="0.5" stroke-width="3"/>
<path opacity="0.525253" d="M-401.561 784.749C-408.056 780.458 -410.943 772.125 -408.702 764.136L-324.954 465.601C-322.729 457.666 -315.949 451.871 -308.143 451.231L-13.5592 427.069C-5.72023 426.426 1.37019 431.128 3.99658 438.71L102.213 722.247C104.839 729.829 102.403 738.562 96.1802 743.872L-137.662 943.385C-143.859 948.671 -152.406 949.364 -158.857 945.102L-401.561 784.749Z" stroke="url(#paint51_linear_229_6020)" stroke-opacity="0.5" stroke-width="3"/>
<path opacity="0.535354" d="M-403.299 783.742C-409.701 779.339 -412.435 770.975 -410.068 763.039L-321.595 466.438C-319.236 458.528 -312.345 452.84 -304.518 452.34L-10.5393 433.57C-2.69519 433.07 4.30534 437.893 6.79739 445.515L99.9646 730.482C102.457 738.104 99.8727 746.79 93.5654 751.992L-142.813 946.939C-149.107 952.13 -157.68 952.673 -164.06 948.285L-403.299 783.742Z" stroke="url(#paint52_linear_229_6020)" stroke-opacity="0.5" stroke-width="3"/>
<path opacity="0.545455" d="M-404.955 782.719C-411.262 778.206 -413.845 769.815 -411.352 761.933L-318.203 467.351C-315.71 459.469 -308.71 453.89 -300.863 453.531L-7.57995 440.133C0.26704 439.775 7.17591 444.719 9.53332 452.379L97.6427 738.681C100 746.341 97.2699 754.975 90.8799 760.068L-147.949 950.41C-154.339 955.503 -162.935 955.895 -169.242 951.383L-404.955 782.719Z" stroke="url(#paint53_linear_229_6020)" stroke-opacity="0.5" stroke-width="3"/>
<path opacity="0.555556" d="M-406.529 781.681C-412.739 777.06 -415.17 768.644 -412.555 760.819L-314.777 468.339C-312.152 460.488 -305.044 455.02 -297.18 454.804L-4.68118 446.757C3.16619 446.541 9.98162 451.603 12.2041 459.299L95.2487 746.84C97.4712 754.536 94.5959 763.116 88.125 768.098L-153.067 953.797C-159.551 958.79 -168.168 959.031 -174.4 954.395L-406.529 781.681Z" stroke="url(#paint54_linear_229_6020)" stroke-opacity="0.5" stroke-width="3"/>
<path opacity="0.565657" d="M-408.02 780.63C-414.132 775.903 -416.412 767.464 -413.674 759.699L-311.319 469.404C-308.562 461.585 -301.348 456.232 -293.47 456.159L-1.84355 453.44C6.00181 453.366 12.7222 458.546 14.8097 466.274L92.784 754.961C94.8714 762.69 91.8522 771.213 85.3024 776.083L-158.165 957.101C-164.743 961.992 -173.378 962.081 -179.532 957.322L-408.02 780.63Z" stroke="url(#paint55_linear_229_6020)" stroke-opacity="0.5" stroke-width="3"/>
<path opacity="0.575758" d="M-409.429 779.568C-415.442 774.737 -417.571 766.278 -414.712 758.574L-307.832 470.546C-304.943 462.762 -297.626 457.526 -289.735 457.596L0.930818 460.18C8.77177 460.25 15.3954 465.545 17.3476 473.304L90.2479 763.041C92.2001 770.8 89.0384 779.264 82.4116 784.02L-163.244 960.323C-169.913 965.109 -178.565 965.045 -184.639 960.165L-409.429 779.568Z" stroke="url(#paint56_linear_229_6020)" stroke-opacity="0.5" stroke-width="3"/>
<path opacity="0.585859" d="M-410.755 778.495C-416.667 773.562 -418.645 765.087 -415.667 757.445L-304.315 471.765C-301.295 464.019 -293.875 458.901 -285.975 459.116L3.64307 466.978C11.4772 467.191 18.0025 472.6 19.8194 480.386L87.6436 771.078C89.4604 778.865 86.1575 787.267 79.4557 791.908L-168.301 963.463C-175.059 968.143 -183.724 967.925 -189.717 962.924L-410.755 778.495Z" stroke="url(#paint57_linear_229_6020)" stroke-opacity="0.5" stroke-width="3"/>
<path opacity="0.59596" d="M-411.999 777.414C-417.809 772.381 -419.637 763.891 -416.54 756.315L-300.771 473.062C-297.621 465.356 -290.101 460.36 -282.193 460.719L6.29056 473.832C14.1156 474.187 20.5409 479.708 22.2222 487.52L84.9699 779.072C86.6512 786.884 83.2086 795.222 76.4337 799.746L-173.335 966.521C-180.181 971.093 -188.857 970.72 -194.767 965.6L-411.999 777.414Z" stroke="url(#paint58_linear_229_6020)" stroke-opacity="0.5" stroke-width="3"/>
<path opacity="0.606061" d="M-413.161 776.327C-418.868 771.195 -420.545 762.693 -417.332 755.185L-297.201 474.437C-293.921 466.774 -286.303 461.901 -278.391 462.406L8.87376 480.739C16.6872 481.238 23.011 486.869 24.5569 494.705L82.229 787.021C83.7749 794.857 80.1939 803.127 73.348 807.533L-178.345 969.499C-185.277 973.96 -193.961 973.432 -199.785 968.195L-413.161 776.327Z" stroke="url(#paint59_linear_229_6020)" stroke-opacity="0.5" stroke-width="3"/>
<path opacity="0.616162" d="M-414.241 775.234C-419.843 770.006 -421.371 761.495 -418.043 754.055L-293.606 475.89C-290.198 468.272 -282.484 463.526 -274.569 464.177L11.3913 487.7C19.1907 488.342 25.4114 494.082 26.8219 501.938L79.4214 794.924C80.8319 802.78 77.114 810.981 70.1991 815.267L-183.329 972.396C-190.346 976.745 -199.035 976.06 -204.772 970.707L-414.241 775.234Z" stroke="url(#paint60_linear_229_6020)" stroke-opacity="0.5" stroke-width="3"/>
<path opacity="0.626263" d="M-415.238 774.138C-420.734 768.815 -422.113 760.297 -418.672 752.929L-289.988 477.423C-286.452 469.853 -278.644 465.234 -270.73 466.032L13.8431 494.713C21.6261 495.497 27.7422 501.344 29.0173 509.219L76.5486 802.78C77.8236 810.655 73.9704 818.784 66.9886 822.948L-188.287 975.213C-195.386 979.448 -204.078 978.607 -209.725 973.138L-415.238 774.138Z" stroke="url(#paint61_linear_229_6020)" stroke-opacity="0.5" stroke-width="3"/>
<path opacity="0.636364" d="M-416.153 773.039C-421.542 767.625 -422.773 759.102 -419.22 751.807L-286.348 479.034C-282.685 471.514 -274.785 467.027 -266.874 467.971L16.2284 501.777C23.9926 502.704 30.0026 508.656 31.1423 516.547L73.6114 810.587C74.7511 818.478 70.7641 826.533 63.7176 830.575L-193.216 977.952C-200.396 982.07 -209.088 981.071 -214.643 975.49L-416.153 773.039Z" stroke="url(#paint62_linear_229_6020)" stroke-opacity="0.5" stroke-width="3"/>
<path opacity="0.646465" d="M-416.987 771.94C-422.268 766.435 -423.352 757.911 -419.687 750.69L-282.688 480.725C-278.898 473.258 -270.91 468.903 -263.005 469.995L18.5456 508.889C26.2886 509.959 32.1911 516.014 33.1956 523.919L70.6101 818.345C71.6147 826.25 67.4954 834.227 60.3862 838.145L-198.117 980.611C-205.376 984.612 -214.064 983.455 -219.526 977.762L-416.987 771.94Z" stroke="url(#paint63_linear_229_6020)" stroke-opacity="0.5" stroke-width="3"/>
<path opacity="0.656566" d="M-417.739 770.843C-422.912 765.249 -423.848 756.725 -420.074 749.58L-279.009 482.496C-275.094 475.084 -267.019 470.864 -259.122 472.103L20.7952 516.049C28.5146 517.261 34.3081 523.419 35.1776 531.335L67.547 826.052C68.4164 833.968 64.1666 841.867 56.997 845.659L-202.988 983.194C-210.322 987.074 -219.005 985.759 -224.372 979.955L-417.739 770.843Z" stroke="url(#paint64_linear_229_6020)" stroke-opacity="0.5" stroke-width="3"/>
<path opacity="0.666667" d="M-418.411 769.747C-423.474 764.066 -424.264 755.545 -420.382 748.479L-275.313 484.346C-271.274 476.991 -263.114 472.909 -255.229 474.296L22.975 523.256C30.6683 524.61 36.3515 530.867 37.0861 538.793L64.4212 833.706C65.1558 841.632 60.7771 849.449 53.5491 853.115L-207.828 985.698C-215.236 989.456 -223.911 987.982 -229.18 982.07L-418.411 769.747Z" stroke="url(#paint65_linear_229_6020)" stroke-opacity="0.5" stroke-width="3"/>
<path opacity="0.676768" d="M-419.001 768.656C-423.953 762.891 -424.597 754.374 -420.61 747.387L-271.6 486.276C-267.437 478.982 -259.196 475.039 -251.325 476.574L25.0864 530.508C32.7513 532.004 38.3228 538.36 38.9227 546.292L61.236 841.308C61.836 849.241 57.3301 856.974 50.046 860.512L-212.634 988.126C-220.115 991.761 -228.777 990.128 -233.947 984.109L-419.001 768.656Z" stroke="url(#paint66_linear_229_6020)" stroke-opacity="0.5" stroke-width="3"/>
<path opacity="0.686869" d="M-419.511 767.57C-424.351 761.722 -424.851 753.213 -420.759 746.307L-267.873 488.287C-263.588 481.055 -255.268 477.253 -247.414 478.937L27.1276 537.804C34.7617 539.441 40.2201 545.893 40.6857 553.83L57.9913 848.856C58.4568 856.793 53.8254 864.44 46.4875 867.85L-217.408 990.479C-224.958 993.988 -233.606 992.195 -238.674 986.071L-419.511 767.57Z" stroke="url(#paint67_linear_229_6020)" stroke-opacity="0.5" stroke-width="3"/>
<path opacity="0.69697" d="M-419.941 766.492C-424.669 760.563 -425.024 752.063 -420.829 745.24L-264.133 490.377C-259.727 483.211 -251.33 479.553 -243.495 481.385L29.0985 545.143C36.6993 546.921 42.0433 553.467 42.3748 561.407L54.6884 856.348C55.0199 864.288 50.2647 871.847 42.8751 875.127L-222.146 992.757C-229.763 996.138 -238.394 994.185 -243.359 987.958L-419.941 766.492Z" stroke="url(#paint68_linear_229_6020)" stroke-opacity="0.5" stroke-width="3"/>
<path opacity="0.707071" d="M-420.29 765.423C-424.904 759.415 -425.116 750.927 -420.819 744.188L-260.379 492.549C-255.853 485.451 -247.384 481.938 -239.571 483.919L30.9995 552.523C38.5647 554.441 43.7931 561.081 43.9908 569.021L51.3297 863.785C51.5274 871.725 46.6503 879.193 39.2113 882.342L-226.847 994.961C-234.529 998.212 -243.139 996.1 -247.999 989.772L-420.29 765.423Z" stroke="url(#paint69_linear_229_6020)" stroke-opacity="0.5" stroke-width="3"/>
<path opacity="0.717172" d="M-420.561 764.364C-425.061 758.279 -425.129 749.804 -420.733 743.151L-256.617 494.801C-251.972 487.773 -243.432 484.407 -235.645 486.536L32.8279 559.943C40.3551 562.001 45.4666 568.731 45.5308 576.669L47.914 871.164C47.9782 879.102 42.981 886.478 35.4948 889.494L-231.513 997.09C-239.258 1000.21 -247.844 997.939 -252.597 991.511L-420.561 764.364Z" stroke="url(#paint70_linear_229_6020)" stroke-opacity="0.5" stroke-width="3"/>
<path opacity="0.727273" d="M-420.752 763.317C-425.137 757.157 -425.063 748.697 -420.569 742.131L-252.844 497.134C-248.082 490.179 -239.474 486.962 -231.715 489.239L34.5855 567.401C42.0723 569.599 47.0655 576.418 46.9967 584.353L44.4445 878.485C44.3757 886.419 39.2601 893.7 31.7292 896.584L-236.14 999.148C-243.944 1002.14 -252.503 999.704 -257.148 993.178L-420.752 763.317Z" stroke="url(#paint71_linear_229_6020)" stroke-opacity="0.5" stroke-width="3"/>
<path opacity="0.737374" d="M-420.865 762.283C-425.134 756.05 -424.919 747.607 -420.327 741.13L-249.064 499.548C-244.186 492.667 -235.513 489.601 -227.786 492.027L36.2707 574.896C43.7148 577.232 48.5886 584.139 48.387 592.068L40.9215 885.746C40.72 893.674 35.488 900.859 27.9145 903.608L-240.728 1001.13C-248.589 1003.99 -257.118 1001.4 -261.653 994.774L-420.865 762.283Z" stroke="url(#paint72_linear_229_6020)" stroke-opacity="0.5" stroke-width="3"/>
<path opacity="0.747475" d="M-420.899 761.264C-425.051 754.96 -424.696 746.536 -420.009 740.149L-245.277 502.042C-240.284 495.239 -231.55 492.326 -223.856 494.899L37.8838 582.428C45.2829 584.902 50.036 591.895 49.7022 599.814L37.347 892.948C37.0132 900.867 31.6666 907.954 24.053 910.568L-245.274 1003.05C-253.191 1005.77 -261.686 1003.01 -266.109 996.299L-420.899 761.264Z" stroke="url(#paint73_linear_229_6020)" stroke-opacity="0.5" stroke-width="3"/>
<path opacity="0.757576" d="M-420.857 760.261C-424.892 753.887 -424.397 745.485 -419.616 739.189L-241.486 504.617C-236.38 497.894 -227.587 495.135 -219.931 497.855L39.4227 589.992C46.7744 592.604 51.4057 599.68 50.94 607.59L33.7202 900.087C33.2545 907.997 27.7953 914.983 20.144 917.462L-249.781 1004.89C-257.749 1007.47 -266.209 1004.56 -270.518 997.755L-420.857 760.261Z" stroke="url(#paint74_linear_229_6020)" stroke-opacity="0.5" stroke-width="3"/>
<path opacity="0.767677" d="M-420.736 759.277C-424.654 752.835 -424.02 744.455 -419.147 738.252L-237.691 507.273C-232.473 500.632 -223.625 498.029 -216.009 500.896L40.889 597.591C48.1909 600.339 52.6993 607.497 52.1023 615.394L30.0444 907.165C29.4474 915.062 23.8774 921.947 16.1907 924.288L-254.245 1006.67C-262.263 1009.11 -270.682 1006.04 -274.876 999.142L-420.736 759.277Z" stroke="url(#paint75_linear_229_6020)" stroke-opacity="0.5" stroke-width="3"/>
<path opacity="0.777778" d="M-420.539 758.311C-424.338 751.804 -423.566 743.449 -418.603 737.34L-233.893 510.01C-228.565 503.453 -219.665 501.008 -212.091 504.021L42.2823 605.221C49.5322 608.105 53.9165 615.343 53.1886 623.226L26.3208 914.181C25.5929 922.064 19.9142 928.844 12.1944 931.048L-258.665 1008.37C-266.729 1010.68 -275.106 1007.45 -279.183 1000.46L-420.539 758.311Z" stroke="url(#paint76_linear_229_6020)" stroke-opacity="0.5" stroke-width="3"/>
<path opacity="0.787879" d="M-420.266 757.367C-423.946 750.795 -423.037 742.467 -417.984 736.453L-230.094 512.827C-224.658 506.357 -215.709 504.072 -208.181 507.23L43.6015 612.881C50.797 615.9 55.0561 623.216 54.1978 631.082L22.5499 921.133C21.6916 928.999 15.906 935.674 8.15566 937.739L-263.041 1010.01C-271.148 1012.17 -279.479 1008.79 -283.437 1001.72L-420.266 757.367Z" stroke="url(#paint77_linear_229_6020)" stroke-opacity="0.5" stroke-width="3"/>
<path opacity="0.79798" d="M-419.919 756.444C-423.479 749.81 -422.434 741.51 -417.293 735.593L-226.297 515.724C-220.754 509.344 -211.759 507.219 -204.28 510.522L44.8455 620.569C51.9843 623.723 56.1171 631.115 55.1289 638.962L18.7319 928.02C17.7438 935.867 11.8534 942.435 4.07485 944.361L-267.372 1011.59C-275.521 1013.6 -283.802 1010.06 -287.64 1002.9L-419.919 756.444Z" stroke="url(#paint78_linear_229_6020)" stroke-opacity="0.5" stroke-width="3"/>
<path opacity="0.808081" d="M-419.496 755.545C-422.936 748.851 -421.755 740.581 -416.528 734.761L-222.5 518.703C-216.852 512.414 -207.815 510.45 -200.388 513.898L46.016 628.285C53.096 631.572 57.1014 639.038 55.9839 646.865L14.8705 934.842C13.753 942.669 7.75977 949.127 -0.0445025 950.914L-271.656 1013.09C-279.843 1014.97 -288.071 1011.26 -291.788 1004.03L-419.496 755.545Z" stroke="url(#paint79_linear_229_6020)" stroke-opacity="0.5" stroke-width="3"/>
<path opacity="0.818182" d="M-419 754.67C-422.319 747.918 -421.004 739.68 -415.692 733.958L-218.708 521.761C-212.957 515.566 -203.881 513.765 -196.509 517.356L47.1109 636.027C54.1297 639.446 58.0067 646.984 56.7605 654.789L10.9648 941.597C9.71856 949.402 3.62441 955.749 -4.20313 957.395L-275.895 1014.53C-284.116 1016.26 -292.288 1012.4 -295.883 1005.09L-419 754.67Z" stroke="url(#paint80_linear_229_6020)" stroke-opacity="0.5" stroke-width="3"/>
<path opacity="0.828283" d="M-418.43 753.822C-421.628 747.013 -420.179 738.808 -414.784 733.186L-214.919 524.899C-209.067 518.8 -199.955 517.163 -192.641 520.896L48.1316 643.793C55.087 647.343 58.8345 654.951 57.4602 662.732L7.0176 948.286C5.64322 956.066 -0.549731 962.301 -8.39818 963.806L-280.084 1015.91C-288.338 1017.49 -296.45 1013.48 -299.921 1006.09L-418.43 753.822Z" stroke="url(#paint81_linear_229_6020)" stroke-opacity="0.5" stroke-width="3"/>
<path opacity="0.838384" d="M-417.787 753.002C-420.865 746.138 -419.282 737.968 -413.806 732.446L-211.137 528.117C-205.185 522.116 -196.042 520.644 -188.788 524.519L49.0765 651.582C55.9663 655.262 59.5834 662.939 58.0815 670.693L3.02913 954.907C1.52719 962.661 -4.76258 968.782 -12.6294 970.146L-284.226 1017.22C-292.508 1018.66 -300.558 1014.49 -303.902 1007.03L-417.787 753.002Z" stroke="url(#paint82_linear_229_6020)" stroke-opacity="0.5" stroke-width="3"/>
<path opacity="0.848485" d="M-417.072 752.211C-420.028 745.293 -418.313 737.16 -412.756 731.741L-207.361 531.415C-201.311 525.514 -192.14 524.208 -184.95 528.223L49.9473 659.393C56.7692 663.202 60.255 670.945 58.6261 678.671L-0.997729 961.46C-2.62663 969.186 -9.01117 975.191 -16.8938 976.413L-288.316 1018.48C-296.624 1019.77 -304.608 1015.44 -307.826 1007.91L-417.072 752.211Z" stroke="url(#paint83_linear_229_6020)" stroke-opacity="0.5" stroke-width="3"/>
<path opacity="0.858586" d="M-416.287 751.45C-419.121 744.481 -417.274 736.386 -411.639 731.069L-203.595 534.792C-197.449 528.994 -188.254 527.855 -181.13 532.009L50.7414 667.223C57.4933 671.161 60.8467 678.968 59.0915 686.663L-5.06399 967.944C-6.81922 975.639 -13.2964 981.528 -21.1926 982.608L-292.357 1019.67C-300.688 1020.81 -308.602 1016.33 -311.692 1008.73L-416.287 751.45Z" stroke="url(#paint84_linear_229_6020)" stroke-opacity="0.5" stroke-width="3"/>
<path opacity="0.868687" d="M-415.432 750.721C-418.142 743.702 -416.165 735.646 -410.453 730.434L-199.838 538.249C-193.599 532.555 -184.382 531.583 -177.328 535.875L51.4606 675.073C58.1404 679.137 61.3605 687.006 59.4796 694.67L-9.16636 974.358C-11.0473 982.022 -17.6151 987.793 -25.5222 988.729L-296.346 1020.8C-304.697 1021.79 -312.538 1017.16 -315.499 1009.49L-415.432 750.721Z" stroke="url(#paint85_linear_229_6020)" stroke-opacity="0.5" stroke-width="3"/>
<path opacity="0.878788" d="M-414.505 750.025C-417.093 742.959 -414.985 734.944 -409.198 729.836L-196.092 541.784C-189.76 536.197 -180.526 535.393 -173.544 539.822L52.105 682.94C58.7105 687.13 61.7964 695.059 59.7905 702.689L-13.3034 980.703C-15.3093 988.333 -21.9657 993.984 -29.8812 994.777L-300.282 1021.87C-308.649 1022.71 -316.415 1017.93 -319.245 1010.2L-414.505 750.025Z" stroke="url(#paint86_linear_229_6020)" stroke-opacity="0.5" stroke-width="3"/>
<path opacity="0.888889" d="M-413.512 749.363C-415.975 742.251 -413.739 734.278 -407.877 729.277L-192.359 545.398C-185.937 539.92 -176.69 539.285 -169.783 543.848L52.673 690.823C59.2021 695.137 62.1528 703.124 60.0225 710.718L-17.4754 986.977C-19.6057 994.571 -26.3485 1000.1 -34.27 1000.75L-304.166 1022.89C-312.546 1023.57 -320.233 1018.65 -322.932 1010.85L-413.512 749.363Z" stroke="url(#paint87_linear_229_6020)" stroke-opacity="0.5" stroke-width="3"/>
<path opacity="0.89899" d="M-412.449 748.737C-414.789 741.58 -412.424 733.652 -406.49 728.757L-188.639 549.09C-182.13 543.722 -172.873 543.256 -166.043 547.953L53.1656 698.72C59.6161 703.157 62.4309 711.201 60.177 718.757L-21.6798 993.18C-23.9338 1000.74 -30.761 1006.14 -38.6858 1006.65L-307.996 1023.84C-316.386 1024.38 -323.99 1019.3 -326.556 1011.45L-412.449 748.737Z" stroke="url(#paint88_linear_229_6020)" stroke-opacity="0.5" stroke-width="3"/>
<path opacity="0.909091" d="M-411.319 748.148C-413.535 740.948 -411.042 733.066 -405.036 728.279L-184.933 552.861C-178.338 547.605 -169.075 547.309 -162.326 552.138L53.5838 706.631C59.9538 711.189 62.6318 719.287 60.2549 726.804L-25.9143 999.311C-28.2912 1006.83 -35.2007 1012.11 -43.1265 1012.47L-311.769 1024.75C-320.166 1025.13 -327.685 1019.91 -330.118 1012L-411.319 748.148Z" stroke="url(#paint89_linear_229_6020)" stroke-opacity="0.5" stroke-width="3"/>
<path opacity="0.919192" d="M-410.124 747.596C-412.215 740.356 -409.596 732.52 -403.52 727.842L-181.245 556.708C-174.567 551.566 -165.301 551.44 -158.636 556.399L53.9245 714.553C60.2119 719.231 62.7523 727.381 60.2532 734.856L-30.1807 1005.37C-32.6798 1012.84 -39.6695 1018 -47.5937 1018.22L-315.489 1025.59C-323.89 1025.82 -331.32 1020.46 -333.618 1012.5L-410.124 747.596Z" stroke="url(#paint90_linear_229_6020)" stroke-opacity="0.5" stroke-width="3"/>
<path opacity="0.929293" d="M-408.864 747.084C-410.83 739.804 -408.084 732.017 -401.94 727.449L-177.574 560.632C-170.815 555.607 -161.55 555.651 -154.971 560.738L54.1903 722.485C60.3931 727.282 62.795 735.481 60.1744 742.914L-34.475 1011.35C-37.0956 1018.79 -44.1633 1023.82 -52.0834 1023.89L-319.153 1026.38C-327.554 1026.46 -334.891 1020.95 -337.055 1012.95L-408.864 747.084Z" stroke="url(#paint91_linear_229_6020)" stroke-opacity="0.5" stroke-width="3"/>
<path opacity="0.939394" d="M-407.538 746.613C-409.38 739.295 -406.508 731.558 -400.298 727.1L-173.921 564.634C-167.084 559.726 -157.824 559.94 -151.333 565.154L54.381 730.426C60.4971 735.34 62.7599 743.587 60.0185 750.975L-38.7963 1017.27C-41.5376 1024.66 -48.6813 1029.56 -56.5947 1029.49L-322.759 1027.12C-331.157 1027.05 -338.4 1021.4 -340.427 1013.34L-407.538 746.613Z" stroke="url(#paint92_linear_229_6020)" stroke-opacity="0.5" stroke-width="3"/>
<path opacity="0.949495" d="M-406.153 746.182C-407.869 738.828 -404.873 731.142 -398.597 726.796L-170.292 568.709C-163.378 563.922 -154.127 564.305 -147.728 569.645L54.4924 738.373C60.5201 743.402 62.6429 751.695 59.7816 759.036L-43.147 1023.11C-46.0083 1030.45 -53.2258 1035.22 -61.1302 1035.01L-326.311 1027.81C-334.703 1027.58 -341.847 1021.79 -343.738 1013.69L-406.153 746.182Z" stroke="url(#paint93_linear_229_6020)" stroke-opacity="0.5" stroke-width="3"/>
<path opacity="0.959596" d="M-404.703 745.794C-406.293 738.406 -403.173 730.772 -396.833 726.539L-166.682 572.862C-159.694 568.196 -150.455 568.749 -144.15 574.212L54.5317 746.327C60.4688 751.47 62.4509 759.807 59.4704 767.099L-47.5193 1028.87C-50.4998 1036.16 -57.789 1040.81 -65.6817 1040.45L-329.802 1028.45C-338.184 1028.07 -345.228 1022.14 -346.98 1014L-404.703 745.794Z" stroke="url(#paint94_linear_229_6020)" stroke-opacity="0.5" stroke-width="3"/>
<path opacity="0.969697" d="M-403.19 745.451C-404.654 738.031 -401.411 730.451 -395.009 726.331L-163.092 577.091C-156.032 572.548 -146.81 573.271 -140.601 578.854L54.4968 754.286C60.3416 759.542 62.1823 767.92 59.0833 775.162L-51.9135 1034.56C-55.0125 1041.8 -62.3713 1046.32 -70.2498 1045.82L-333.233 1029.04C-341.602 1028.5 -348.542 1022.44 -350.156 1014.26L-403.19 745.451Z" stroke="url(#paint95_linear_229_6020)" stroke-opacity="0.5" stroke-width="3"/>
<path opacity="0.979798" d="M-401.619 745.153C-402.956 737.701 -399.59 730.177 -393.127 726.171L-159.528 581.394C-152.399 576.976 -143.196 577.867 -137.086 583.569L54.3855 762.248C60.136 767.614 61.8346 776.031 58.618 783.222L-56.331 1040.18C-59.5476 1047.37 -66.9739 1051.75 -74.8358 1051.11L-336.606 1029.57C-344.959 1028.89 -351.791 1022.7 -353.267 1014.48L-401.619 745.153Z" stroke="url(#paint96_linear_229_6020)" stroke-opacity="0.5" stroke-width="3"/>
<path opacity="0.989899" d="M-399.986 744.901C-401.197 737.42 -397.709 729.952 -391.186 726.062L-155.987 585.772C-148.791 581.479 -139.612 582.54 -133.603 588.358L54.201 770.212C59.8555 775.687 61.4114 784.141 58.078 791.278L-60.7672 1045.72C-64.1006 1052.86 -71.5922 1057.11 -79.4349 1056.32L-339.917 1030.07C-348.251 1029.23 -354.973 1022.91 -356.309 1014.65L-399.986 744.901Z" stroke="url(#paint97_linear_229_6020)" stroke-opacity="0.5" stroke-width="3"/>
<path d="M-398.295 744.696C-399.379 737.187 -395.77 729.778 -389.19 726.004L-152.472 590.223C-145.212 586.058 -136.06 587.287 -130.155 593.219L53.9415 778.176C59.4982 783.758 60.9107 792.247 57.4613 799.328L-65.2227 1051.19C-68.6721 1058.27 -76.2268 1062.39 -84.0479 1061.45L-343.168 1030.51C-351.479 1029.52 -358.088 1023.07 -359.285 1014.79L-398.295 744.696Z" stroke="url(#paint98_linear_229_6020)" stroke-opacity="0.5" stroke-width="3"/>
<defs>
<linearGradient id="paint0_linear_229_6020" x1="39.8932" y1="535.435" x2="-297.724" y2="422.568" gradientUnits="userSpaceOnUse">
<stop stop-color="#5962C7"/>
<stop offset="1" stop-color="#C18EED"/>
</linearGradient>
<linearGradient id="paint1_linear_229_6020" x1="37.992" y1="542.038" x2="-297.026" y2="423.914" gradientUnits="userSpaceOnUse">
<stop stop-color="#5962C7"/>
<stop offset="1" stop-color="#C18EED"/>
</linearGradient>
<linearGradient id="paint2_linear_229_6020" x1="36.0449" y1="548.614" x2="-296.307" y2="425.286" gradientUnits="userSpaceOnUse">
<stop stop-color="#5962C7"/>
<stop offset="1" stop-color="#C18EED"/>
</linearGradient>
<linearGradient id="paint3_linear_229_6020" x1="34.0526" y1="555.161" x2="-295.566" y2="426.683" gradientUnits="userSpaceOnUse">
<stop stop-color="#5962C7"/>
<stop offset="1" stop-color="#C18EED"/>
</linearGradient>
<linearGradient id="paint4_linear_229_6020" x1="32.0148" y1="561.679" x2="-294.805" y2="428.103" gradientUnits="userSpaceOnUse">
<stop stop-color="#5962C7"/>
<stop offset="1" stop-color="#C18EED"/>
</linearGradient>
<linearGradient id="paint5_linear_229_6020" x1="29.9313" y1="568.165" x2="-294.024" y2="429.545" gradientUnits="userSpaceOnUse">
<stop stop-color="#5962C7"/>
<stop offset="1" stop-color="#C18EED"/>
</linearGradient>
<linearGradient id="paint6_linear_229_6020" x1="27.8039" y1="574.621" x2="-293.222" y2="431.01" gradientUnits="userSpaceOnUse">
<stop stop-color="#5962C7"/>
<stop offset="1" stop-color="#C18EED"/>
</linearGradient>
<linearGradient id="paint7_linear_229_6020" x1="25.6345" y1="581.045" x2="-292.399" y2="432.498" gradientUnits="userSpaceOnUse">
<stop stop-color="#5962C7"/>
<stop offset="1" stop-color="#C18EED"/>
</linearGradient>
<linearGradient id="paint8_linear_229_6020" x1="23.4216" y1="587.437" x2="-291.556" y2="434.006" gradientUnits="userSpaceOnUse">
<stop stop-color="#5962C7"/>
<stop offset="1" stop-color="#C18EED"/>
</linearGradient>
<linearGradient id="paint9_linear_229_6020" x1="21.166" y1="593.794" x2="-290.693" y2="435.535" gradientUnits="userSpaceOnUse">
<stop stop-color="#5962C7"/>
<stop offset="1" stop-color="#C18EED"/>
</linearGradient>
<linearGradient id="paint10_linear_229_6020" x1="18.8707" y1="600.119" x2="-289.808" y2="437.084" gradientUnits="userSpaceOnUse">
<stop stop-color="#5962C7"/>
<stop offset="1" stop-color="#C18EED"/>
</linearGradient>
<linearGradient id="paint11_linear_229_6020" x1="16.5331" y1="606.407" x2="-288.904" y2="438.652" gradientUnits="userSpaceOnUse">
<stop stop-color="#5962C7"/>
<stop offset="1" stop-color="#C18EED"/>
</linearGradient>
<linearGradient id="paint12_linear_229_6020" x1="14.1572" y1="612.66" x2="-287.977" y2="440.239" gradientUnits="userSpaceOnUse">
<stop stop-color="#5962C7"/>
<stop offset="1" stop-color="#C18EED"/>
</linearGradient>
<linearGradient id="paint13_linear_229_6020" x1="11.7415" y1="618.877" x2="-287.03" y2="441.846" gradientUnits="userSpaceOnUse">
<stop stop-color="#5962C7"/>
<stop offset="1" stop-color="#C18EED"/>
</linearGradient>
<linearGradient id="paint14_linear_229_6020" x1="9.28688" y1="625.057" x2="-286.061" y2="443.469" gradientUnits="userSpaceOnUse">
<stop stop-color="#5962C7"/>
<stop offset="1" stop-color="#C18EED"/>
</linearGradient>
<linearGradient id="paint15_linear_229_6020" x1="6.79527" y1="631.199" x2="-285.07" y2="445.111" gradientUnits="userSpaceOnUse">
<stop stop-color="#5962C7"/>
<stop offset="1" stop-color="#C18EED"/>
</linearGradient>
<linearGradient id="paint16_linear_229_6020" x1="4.26706" y1="637.303" x2="-284.056" y2="446.771" gradientUnits="userSpaceOnUse">
<stop stop-color="#5962C7"/>
<stop offset="1" stop-color="#C18EED"/>
</linearGradient>
<linearGradient id="paint17_linear_229_6020" x1="1.70204" y1="643.367" x2="-283.02" y2="448.447" gradientUnits="userSpaceOnUse">
<stop stop-color="#5962C7"/>
<stop offset="1" stop-color="#C18EED"/>
</linearGradient>
<linearGradient id="paint18_linear_229_6020" x1="-0.897764" y1="649.393" x2="-281.96" y2="450.141" gradientUnits="userSpaceOnUse">
<stop stop-color="#5962C7"/>
<stop offset="1" stop-color="#C18EED"/>
</linearGradient>
<linearGradient id="paint19_linear_229_6020" x1="-3.53389" y1="655.377" x2="-280.879" y2="451.85" gradientUnits="userSpaceOnUse">
<stop stop-color="#5962C7"/>
<stop offset="1" stop-color="#C18EED"/>
</linearGradient>
<linearGradient id="paint20_linear_229_6020" x1="-6.20144" y1="661.321" x2="-279.771" y2="453.577" gradientUnits="userSpaceOnUse">
<stop stop-color="#5962C7"/>
<stop offset="1" stop-color="#C18EED"/>
</linearGradient>
<linearGradient id="paint21_linear_229_6020" x1="-8.90407" y1="667.223" x2="-278.641" y2="455.319" gradientUnits="userSpaceOnUse">
<stop stop-color="#5962C7"/>
<stop offset="1" stop-color="#C18EED"/>
</linearGradient>
<linearGradient id="paint22_linear_229_6020" x1="-11.6375" y1="673.084" x2="-277.484" y2="457.078" gradientUnits="userSpaceOnUse">
<stop stop-color="#5962C7"/>
<stop offset="1" stop-color="#C18EED"/>
</linearGradient>
<linearGradient id="paint23_linear_229_6020" x1="-14.4024" y1="678.901" x2="-276.302" y2="458.854" gradientUnits="userSpaceOnUse">
<stop stop-color="#5962C7"/>
<stop offset="1" stop-color="#C18EED"/>
</linearGradient>
<linearGradient id="paint24_linear_229_6020" x1="-17.1987" y1="684.676" x2="-275.094" y2="460.645" gradientUnits="userSpaceOnUse">
<stop stop-color="#5962C7"/>
<stop offset="1" stop-color="#C18EED"/>
</linearGradient>
<linearGradient id="paint25_linear_229_6020" x1="-20.0248" y1="690.407" x2="-273.86" y2="462.453" gradientUnits="userSpaceOnUse">
<stop stop-color="#5962C7"/>
<stop offset="1" stop-color="#C18EED"/>
</linearGradient>
<linearGradient id="paint26_linear_229_6020" x1="-22.8791" y1="696.094" x2="-272.598" y2="464.277" gradientUnits="userSpaceOnUse">
<stop stop-color="#5962C7"/>
<stop offset="1" stop-color="#C18EED"/>
</linearGradient>
<linearGradient id="paint27_linear_229_6020" x1="-25.7615" y1="701.736" x2="-271.308" y2="466.118" gradientUnits="userSpaceOnUse">
<stop stop-color="#5962C7"/>
<stop offset="1" stop-color="#C18EED"/>
</linearGradient>
<linearGradient id="paint28_linear_229_6020" x1="-28.6708" y1="707.333" x2="-269.989" y2="467.976" gradientUnits="userSpaceOnUse">
<stop stop-color="#5962C7"/>
<stop offset="1" stop-color="#C18EED"/>
</linearGradient>
<linearGradient id="paint29_linear_229_6020" x1="-31.6078" y1="712.884" x2="-268.643" y2="469.85" gradientUnits="userSpaceOnUse">
<stop stop-color="#5962C7"/>
<stop offset="1" stop-color="#C18EED"/>
</linearGradient>
<linearGradient id="paint30_linear_229_6020" x1="-34.5687" y1="718.39" x2="-267.265" y2="471.743" gradientUnits="userSpaceOnUse">
<stop stop-color="#5962C7"/>
<stop offset="1" stop-color="#C18EED"/>
</linearGradient>
<linearGradient id="paint31_linear_229_6020" x1="-37.5559" y1="723.848" x2="-265.858" y2="473.653" gradientUnits="userSpaceOnUse">
<stop stop-color="#5962C7"/>
<stop offset="1" stop-color="#C18EED"/>
</linearGradient>
<linearGradient id="paint32_linear_229_6020" x1="-40.5657" y1="729.26" x2="-264.42" y2="475.582" gradientUnits="userSpaceOnUse">
<stop stop-color="#5962C7"/>
<stop offset="1" stop-color="#C18EED"/>
</linearGradient>
<linearGradient id="paint33_linear_229_6020" x1="-43.5991" y1="734.625" x2="-262.951" y2="477.53" gradientUnits="userSpaceOnUse">
<stop stop-color="#5962C7"/>
<stop offset="1" stop-color="#C18EED"/>
</linearGradient>
<linearGradient id="paint34_linear_229_6020" x1="-46.6534" y1="739.942" x2="-261.449" y2="479.497" gradientUnits="userSpaceOnUse">
<stop stop-color="#5962C7"/>
<stop offset="1" stop-color="#C18EED"/>
</linearGradient>
<linearGradient id="paint35_linear_229_6020" x1="-49.7301" y1="745.211" x2="-259.916" y2="481.484" gradientUnits="userSpaceOnUse">
<stop stop-color="#5962C7"/>
<stop offset="1" stop-color="#C18EED"/>
</linearGradient>
<linearGradient id="paint36_linear_229_6020" x1="-52.8259" y1="750.432" x2="-258.349" y2="483.492" gradientUnits="userSpaceOnUse">
<stop stop-color="#5962C7"/>
<stop offset="1" stop-color="#C18EED"/>
</linearGradient>
<linearGradient id="paint37_linear_229_6020" x1="-55.9422" y1="755.604" x2="-256.749" y2="485.522" gradientUnits="userSpaceOnUse">
<stop stop-color="#5962C7"/>
<stop offset="1" stop-color="#C18EED"/>
</linearGradient>
<linearGradient id="paint38_linear_229_6020" x1="-59.0763" y1="760.728" x2="-255.115" y2="487.574" gradientUnits="userSpaceOnUse">
<stop stop-color="#5962C7"/>
<stop offset="1" stop-color="#C18EED"/>
</linearGradient>
<linearGradient id="paint39_linear_229_6020" x1="-62.2292" y1="765.801" x2="-253.447" y2="489.648" gradientUnits="userSpaceOnUse">
<stop stop-color="#5962C7"/>
<stop offset="1" stop-color="#C18EED"/>
</linearGradient>
<linearGradient id="paint40_linear_229_6020" x1="-65.3973" y1="770.826" x2="-251.743" y2="491.747" gradientUnits="userSpaceOnUse">
<stop stop-color="#5962C7"/>
<stop offset="1" stop-color="#C18EED"/>
</linearGradient>
<linearGradient id="paint41_linear_229_6020" x1="-68.5815" y1="775.8" x2="-250.005" y2="493.871" gradientUnits="userSpaceOnUse">
<stop stop-color="#5962C7"/>
<stop offset="1" stop-color="#C18EED"/>
</linearGradient>
<linearGradient id="paint42_linear_229_6020" x1="-71.7812" y1="780.725" x2="-248.231" y2="496.021" gradientUnits="userSpaceOnUse">
<stop stop-color="#5962C7"/>
<stop offset="1" stop-color="#C18EED"/>
</linearGradient>
<linearGradient id="paint43_linear_229_6020" x1="-74.9942" y1="785.599" x2="-246.421" y2="498.198" gradientUnits="userSpaceOnUse">
<stop stop-color="#5962C7"/>
<stop offset="1" stop-color="#C18EED"/>
</linearGradient>
<linearGradient id="paint44_linear_229_6020" x1="-78.22" y1="790.423" x2="-244.575" y2="500.404" gradientUnits="userSpaceOnUse">
<stop stop-color="#5962C7"/>
<stop offset="1" stop-color="#C18EED"/>
</linearGradient>
<linearGradient id="paint45_linear_229_6020" x1="-81.4584" y1="795.196" x2="-242.693" y2="502.638" gradientUnits="userSpaceOnUse">
<stop stop-color="#5962C7"/>
<stop offset="1" stop-color="#C18EED"/>
</linearGradient>
<linearGradient id="paint46_linear_229_6020" x1="-84.7043" y1="799.92" x2="-240.77" y2="504.904" gradientUnits="userSpaceOnUse">
<stop stop-color="#5962C7"/>
<stop offset="1" stop-color="#C18EED"/>
</linearGradient>
<linearGradient id="paint47_linear_229_6020" x1="-87.9645" y1="804.592" x2="-238.815" y2="507.201" gradientUnits="userSpaceOnUse">
<stop stop-color="#5962C7"/>
<stop offset="1" stop-color="#C18EED"/>
</linearGradient>
<linearGradient id="paint48_linear_229_6020" x1="-91.2349" y1="809.212" x2="-236.825" y2="509.53" gradientUnits="userSpaceOnUse">
<stop stop-color="#5962C7"/>
<stop offset="1" stop-color="#C18EED"/>
</linearGradient>
<linearGradient id="paint49_linear_229_6020" x1="-94.5124" y1="813.781" x2="-234.796" y2="511.894" gradientUnits="userSpaceOnUse">
<stop stop-color="#5962C7"/>
<stop offset="1" stop-color="#C18EED"/>
</linearGradient>
<linearGradient id="paint50_linear_229_6020" x1="-97.7981" y1="818.299" x2="-232.731" y2="514.294" gradientUnits="userSpaceOnUse">
<stop stop-color="#5962C7"/>
<stop offset="1" stop-color="#C18EED"/>
</linearGradient>
<linearGradient id="paint51_linear_229_6020" x1="-101.091" y1="822.765" x2="-230.631" y2="516.73" gradientUnits="userSpaceOnUse">
<stop stop-color="#5962C7"/>
<stop offset="1" stop-color="#C18EED"/>
</linearGradient>
<linearGradient id="paint52_linear_229_6020" x1="-104.389" y1="827.18" x2="-228.494" y2="519.205" gradientUnits="userSpaceOnUse">
<stop stop-color="#5962C7"/>
<stop offset="1" stop-color="#C18EED"/>
</linearGradient>
<linearGradient id="paint53_linear_229_6020" x1="-107.693" y1="831.543" x2="-226.321" y2="521.719" gradientUnits="userSpaceOnUse">
<stop stop-color="#5962C7"/>
<stop offset="1" stop-color="#C18EED"/>
</linearGradient>
<linearGradient id="paint54_linear_229_6020" x1="-111.001" y1="835.854" x2="-224.113" y2="524.275" gradientUnits="userSpaceOnUse">
<stop stop-color="#5962C7"/>
<stop offset="1" stop-color="#C18EED"/>
</linearGradient>
<linearGradient id="paint55_linear_229_6020" x1="-114.311" y1="840.115" x2="-221.87" y2="526.873" gradientUnits="userSpaceOnUse">
<stop stop-color="#5962C7"/>
<stop offset="1" stop-color="#C18EED"/>
</linearGradient>
<linearGradient id="paint56_linear_229_6020" x1="-117.624" y1="844.323" x2="-219.593" y2="529.516" gradientUnits="userSpaceOnUse">
<stop stop-color="#5962C7"/>
<stop offset="1" stop-color="#C18EED"/>
</linearGradient>
<linearGradient id="paint57_linear_229_6020" x1="-120.938" y1="848.48" x2="-217.281" y2="532.205" gradientUnits="userSpaceOnUse">
<stop stop-color="#5962C7"/>
<stop offset="1" stop-color="#C18EED"/>
</linearGradient>
<linearGradient id="paint58_linear_229_6020" x1="-124.253" y1="852.585" x2="-214.936" y2="534.94" gradientUnits="userSpaceOnUse">
<stop stop-color="#5962C7"/>
<stop offset="1" stop-color="#C18EED"/>
</linearGradient>
<linearGradient id="paint59_linear_229_6020" x1="-127.567" y1="856.639" x2="-212.559" y2="537.724" gradientUnits="userSpaceOnUse">
<stop stop-color="#5962C7"/>
<stop offset="1" stop-color="#C18EED"/>
</linearGradient>
<linearGradient id="paint60_linear_229_6020" x1="-130.88" y1="860.641" x2="-210.15" y2="540.558" gradientUnits="userSpaceOnUse">
<stop stop-color="#5962C7"/>
<stop offset="1" stop-color="#C18EED"/>
</linearGradient>
<linearGradient id="paint61_linear_229_6020" x1="-134.191" y1="864.593" x2="-207.709" y2="543.445" gradientUnits="userSpaceOnUse">
<stop stop-color="#5962C7"/>
<stop offset="1" stop-color="#C18EED"/>
</linearGradient>
<linearGradient id="paint62_linear_229_6020" x1="-137.498" y1="868.493" x2="-205.239" y2="546.384" gradientUnits="userSpaceOnUse">
<stop stop-color="#5962C7"/>
<stop offset="1" stop-color="#C18EED"/>
</linearGradient>
<linearGradient id="paint63_linear_229_6020" x1="-140.802" y1="872.342" x2="-202.741" y2="549.378" gradientUnits="userSpaceOnUse">
<stop stop-color="#5962C7"/>
<stop offset="1" stop-color="#C18EED"/>
</linearGradient>
<linearGradient id="paint64_linear_229_6020" x1="-144.101" y1="876.139" x2="-200.214" y2="552.428" gradientUnits="userSpaceOnUse">
<stop stop-color="#5962C7"/>
<stop offset="1" stop-color="#C18EED"/>
</linearGradient>
<linearGradient id="paint65_linear_229_6020" x1="-147.395" y1="879.886" x2="-197.663" y2="555.535" gradientUnits="userSpaceOnUse">
<stop stop-color="#5962C7"/>
<stop offset="1" stop-color="#C18EED"/>
</linearGradient>
<linearGradient id="paint66_linear_229_6020" x1="-150.682" y1="883.582" x2="-195.085" y2="558.701" gradientUnits="userSpaceOnUse">
<stop stop-color="#5962C7"/>
<stop offset="1" stop-color="#C18EED"/>
</linearGradient>
<linearGradient id="paint67_linear_229_6020" x1="-153.962" y1="887.228" x2="-192.484" y2="561.927" gradientUnits="userSpaceOnUse">
<stop stop-color="#5962C7"/>
<stop offset="1" stop-color="#C18EED"/>
</linearGradient>
<linearGradient id="paint68_linear_229_6020" x1="-157.234" y1="890.823" x2="-189.862" y2="565.215" gradientUnits="userSpaceOnUse">
<stop stop-color="#5962C7"/>
<stop offset="1" stop-color="#C18EED"/>
</linearGradient>
<linearGradient id="paint69_linear_229_6020" x1="-160.495" y1="894.369" x2="-187.217" y2="568.567" gradientUnits="userSpaceOnUse">
<stop stop-color="#5962C7"/>
<stop offset="1" stop-color="#C18EED"/>
</linearGradient>
<linearGradient id="paint70_linear_229_6020" x1="-163.749" y1="897.864" x2="-184.556" y2="571.981" gradientUnits="userSpaceOnUse">
<stop stop-color="#5962C7"/>
<stop offset="1" stop-color="#C18EED"/>
</linearGradient>
<linearGradient id="paint71_linear_229_6020" x1="-166.99" y1="901.31" x2="-181.876" y2="575.462" gradientUnits="userSpaceOnUse">
<stop stop-color="#5962C7"/>
<stop offset="1" stop-color="#C18EED"/>
</linearGradient>
<linearGradient id="paint72_linear_229_6020" x1="-170.22" y1="904.706" x2="-179.181" y2="579.008" gradientUnits="userSpaceOnUse">
<stop stop-color="#5962C7"/>
<stop offset="1" stop-color="#C18EED"/>
</linearGradient>
<linearGradient id="paint73_linear_229_6020" x1="-173.438" y1="908.054" x2="-176.472" y2="582.622" gradientUnits="userSpaceOnUse">
<stop stop-color="#5962C7"/>
<stop offset="1" stop-color="#C18EED"/>
</linearGradient>
<linearGradient id="paint74_linear_229_6020" x1="-176.643" y1="911.352" x2="-173.753" y2="586.304" gradientUnits="userSpaceOnUse">
<stop stop-color="#5962C7"/>
<stop offset="1" stop-color="#C18EED"/>
</linearGradient>
<linearGradient id="paint75_linear_229_6020" x1="-179.834" y1="914.602" x2="-171.024" y2="590.055" gradientUnits="userSpaceOnUse">
<stop stop-color="#5962C7"/>
<stop offset="1" stop-color="#C18EED"/>
</linearGradient>
<linearGradient id="paint76_linear_229_6020" x1="-183.01" y1="917.804" x2="-168.286" y2="593.877" gradientUnits="userSpaceOnUse">
<stop stop-color="#5962C7"/>
<stop offset="1" stop-color="#C18EED"/>
</linearGradient>
<linearGradient id="paint77_linear_229_6020" x1="-186.17" y1="920.959" x2="-165.544" y2="597.77" gradientUnits="userSpaceOnUse">
<stop stop-color="#5962C7"/>
<stop offset="1" stop-color="#C18EED"/>
</linearGradient>
<linearGradient id="paint78_linear_229_6020" x1="-189.315" y1="924.065" x2="-162.8" y2="601.734" gradientUnits="userSpaceOnUse">
<stop stop-color="#5962C7"/>
<stop offset="1" stop-color="#C18EED"/>
</linearGradient>
<linearGradient id="paint79_linear_229_6020" x1="-192.442" y1="927.125" x2="-160.053" y2="605.77" gradientUnits="userSpaceOnUse">
<stop stop-color="#5962C7"/>
<stop offset="1" stop-color="#C18EED"/>
</linearGradient>
<linearGradient id="paint80_linear_229_6020" x1="-195.552" y1="930.137" x2="-157.31" y2="609.878" gradientUnits="userSpaceOnUse">
<stop stop-color="#5962C7"/>
<stop offset="1" stop-color="#C18EED"/>
</linearGradient>
<linearGradient id="paint81_linear_229_6020" x1="-198.642" y1="933.104" x2="-154.569" y2="614.059" gradientUnits="userSpaceOnUse">
<stop stop-color="#5962C7"/>
<stop offset="1" stop-color="#C18EED"/>
</linearGradient>
<linearGradient id="paint82_linear_229_6020" x1="-201.715" y1="936.024" x2="-151.835" y2="618.314" gradientUnits="userSpaceOnUse">
<stop stop-color="#5962C7"/>
<stop offset="1" stop-color="#C18EED"/>
</linearGradient>
<linearGradient id="paint83_linear_229_6020" x1="-204.766" y1="938.899" x2="-149.109" y2="622.642" gradientUnits="userSpaceOnUse">
<stop stop-color="#5962C7"/>
<stop offset="1" stop-color="#C18EED"/>
</linearGradient>
<linearGradient id="paint84_linear_229_6020" x1="-207.797" y1="941.728" x2="-146.396" y2="627.043" gradientUnits="userSpaceOnUse">
<stop stop-color="#5962C7"/>
<stop offset="1" stop-color="#C18EED"/>
</linearGradient>
<linearGradient id="paint85_linear_229_6020" x1="-210.807" y1="944.513" x2="-143.695" y2="631.518" gradientUnits="userSpaceOnUse">
<stop stop-color="#5962C7"/>
<stop offset="1" stop-color="#C18EED"/>
</linearGradient>
<linearGradient id="paint86_linear_229_6020" x1="-213.794" y1="947.254" x2="-141.009" y2="636.067" gradientUnits="userSpaceOnUse">
<stop stop-color="#5962C7"/>
<stop offset="1" stop-color="#C18EED"/>
</linearGradient>
<linearGradient id="paint87_linear_229_6020" x1="-216.758" y1="949.951" x2="-138.343" y2="640.688" gradientUnits="userSpaceOnUse">
<stop stop-color="#5962C7"/>
<stop offset="1" stop-color="#C18EED"/>
</linearGradient>
<linearGradient id="paint88_linear_229_6020" x1="-219.699" y1="952.605" x2="-135.698" y2="645.382" gradientUnits="userSpaceOnUse">
<stop stop-color="#5962C7"/>
<stop offset="1" stop-color="#C18EED"/>
</linearGradient>
<linearGradient id="paint89_linear_229_6020" x1="-222.615" y1="955.217" x2="-133.074" y2="650.149" gradientUnits="userSpaceOnUse">
<stop stop-color="#5962C7"/>
<stop offset="1" stop-color="#C18EED"/>
</linearGradient>
<linearGradient id="paint90_linear_229_6020" x1="-225.507" y1="957.785" x2="-130.479" y2="654.986" gradientUnits="userSpaceOnUse">
<stop stop-color="#5962C7"/>
<stop offset="1" stop-color="#C18EED"/>
</linearGradient>
<linearGradient id="paint91_linear_229_6020" x1="-228.374" y1="960.312" x2="-127.911" y2="659.895" gradientUnits="userSpaceOnUse">
<stop stop-color="#5962C7"/>
<stop offset="1" stop-color="#C18EED"/>
</linearGradient>
<linearGradient id="paint92_linear_229_6020" x1="-231.214" y1="962.798" x2="-125.374" y2="664.874" gradientUnits="userSpaceOnUse">
<stop stop-color="#5962C7"/>
<stop offset="1" stop-color="#C18EED"/>
</linearGradient>
<linearGradient id="paint93_linear_229_6020" x1="-234.031" y1="965.242" x2="-122.874" y2="669.921" gradientUnits="userSpaceOnUse">
<stop stop-color="#5962C7"/>
<stop offset="1" stop-color="#C18EED"/>
</linearGradient>
<linearGradient id="paint94_linear_229_6020" x1="-236.817" y1="967.647" x2="-120.406" y2="675.037" gradientUnits="userSpaceOnUse">
<stop stop-color="#5962C7"/>
<stop offset="1" stop-color="#C18EED"/>
</linearGradient>
<linearGradient id="paint95_linear_229_6020" x1="-239.575" y1="970.013" x2="-117.975" y2="680.22" gradientUnits="userSpaceOnUse">
<stop stop-color="#5962C7"/>
<stop offset="1" stop-color="#C18EED"/>
</linearGradient>
<linearGradient id="paint96_linear_229_6020" x1="-242.305" y1="972.339" x2="-115.585" y2="685.469" gradientUnits="userSpaceOnUse">
<stop stop-color="#5962C7"/>
<stop offset="1" stop-color="#C18EED"/>
</linearGradient>
<linearGradient id="paint97_linear_229_6020" x1="-245.005" y1="974.627" x2="-113.237" y2="690.783" gradientUnits="userSpaceOnUse">
<stop stop-color="#5962C7"/>
<stop offset="1" stop-color="#C18EED"/>
</linearGradient>
<linearGradient id="paint98_linear_229_6020" x1="-247.675" y1="976.878" x2="-110.933" y2="696.16" gradientUnits="userSpaceOnUse">
<stop stop-color="#5962C7"/>
<stop offset="1" stop-color="#C18EED"/>
</linearGradient>
</defs>
</svg>
